<svg width="51" height="52" viewBox="0 0 51 52" fill="none" xmlns="http://www.w3.org/2000/svg">
<g clip-path="url(#clip0_5717_13930)">
<path d="M34.2531 17.9145C32.637 17.1584 30.9089 16.6088 29.1022 16.2959C28.8803 16.697 28.6211 17.2366 28.4424 17.6658C26.5218 17.377 24.619 17.377 22.7338 17.6658C22.5551 17.2366 22.29 16.697 22.0661 16.2959C20.2575 16.6088 18.5274 17.1604 16.9112 17.9185C13.6514 22.8446 12.7677 27.6483 13.2095 32.3837C15.3716 33.9983 17.467 34.9792 19.5269 35.621C20.0356 34.921 20.4892 34.1769 20.88 33.3926C20.1357 33.1098 19.4229 32.7608 18.7493 32.3557C18.928 32.2233 19.1028 32.0849 19.2717 31.9425C23.3798 33.864 27.8434 33.864 31.9025 31.9425C32.0734 32.0849 32.2481 32.2233 32.4249 32.3557C31.7493 32.7628 31.0345 33.1118 30.2903 33.3946C30.6811 34.1769 31.1327 34.923 31.6433 35.623C33.7053 34.9811 35.8025 34.0004 37.9646 32.3837C38.4831 26.8941 37.079 22.1345 34.2531 17.9145ZM21.4396 29.4715C20.2064 29.4715 19.1951 28.3202 19.1951 26.9182C19.1951 25.5162 20.1848 24.3629 21.4396 24.3629C22.6945 24.3629 23.7058 25.5142 23.6842 26.9182C23.6862 28.3202 22.6945 29.4715 21.4396 29.4715ZM29.7345 29.4715C28.5013 29.4715 27.49 28.3202 27.49 26.9182C27.49 25.5162 28.4797 24.3629 29.7345 24.3629C30.9894 24.3629 32.0007 25.5142 31.9791 26.9182C31.9791 28.3202 30.9894 29.4715 29.7345 29.4715Z" fill="#5865F2"/>
</g>
<defs>
<clipPath id="clip0_5717_13930">
<rect width="24.9672" height="24.9672" fill="white" transform="translate(13.1055 13.5166)"/>
</clipPath>
</defs>
</svg>
