<svg width="51" height="51" viewBox="0 0 51 51" fill="none" xmlns="http://www.w3.org/2000/svg">
<g clip-path="url(#clip0_5601_59815)">
<path d="M33.7551 17.3135C32.1389 16.5573 30.4108 16.0077 28.6042 15.6948C28.3823 16.096 28.1231 16.6355 27.9443 17.0647C26.0238 16.7759 24.1209 16.7759 22.2357 17.0647C22.057 16.6355 21.7919 16.096 21.568 15.6948C19.7594 16.0077 18.0293 16.5593 16.4132 17.3175C13.1533 22.2435 12.2696 27.0472 12.7115 31.7827C14.8736 33.3973 16.9689 34.3781 19.0289 35.0199C19.5375 34.3199 19.9911 33.5758 20.3819 32.7916C19.6376 32.5088 18.9248 32.1598 18.2513 31.7546C18.43 31.6222 18.6047 31.4838 18.7736 31.3414C22.8818 33.2629 27.3454 33.2629 31.4045 31.3414C31.5753 31.4838 31.7501 31.6222 31.9268 31.7546C31.2513 32.1617 30.5365 32.5107 29.7922 32.7936C30.183 33.5758 30.6347 34.3219 31.1453 35.0219C33.2072 34.3801 35.3045 33.3993 37.4666 31.7827C37.985 26.293 36.5809 21.5335 33.7551 17.3135ZM20.9416 28.8704C19.7084 28.8704 18.697 27.7191 18.697 26.3171C18.697 24.9151 19.6868 23.7618 20.9416 23.7618C22.1964 23.7618 23.2078 24.9131 23.1862 26.3171C23.1881 27.7191 22.1964 28.8704 20.9416 28.8704ZM29.2365 28.8704C28.0033 28.8704 26.9919 27.7191 26.9919 26.3171C26.9919 24.9151 27.9816 23.7618 29.2365 23.7618C30.4913 23.7618 31.5027 24.9131 31.4811 26.3171C31.4811 27.7191 30.4913 28.8704 29.2365 28.8704Z" fill="black"/>
</g>
<rect x="0.539062" y="0.877441" width="49.0431" height="49.0431" rx="3.5" stroke="black"/>
<defs>
<clipPath id="clip0_5601_59815">
<rect width="24.9672" height="24.9672" fill="white" transform="translate(12.6055 12.9155)"/>
</clipPath>
</defs>
</svg>
