<svg width="52" height="51" viewBox="0 0 52 51" fill="none" xmlns="http://www.w3.org/2000/svg">
<g clip-path="url(#clip0_5601_59810)">
<path d="M26.0498 15.1762C29.3924 15.1762 29.7847 15.1911 31.1058 15.2507C32.3276 15.3053 32.9881 15.509 33.4302 15.6828C34.0162 15.9113 34.4334 16.1795 34.8705 16.6165C35.3075 17.0536 35.5807 17.4708 35.8042 18.0568C35.9731 18.4988 36.1817 19.1594 36.2363 20.3812C36.2959 21.7023 36.3108 22.0946 36.3108 25.4371C36.3108 28.7796 36.2959 29.172 36.2363 30.4931C36.1817 31.7149 35.978 32.3754 35.8042 32.8174C35.5757 33.4035 35.3075 33.8207 34.8705 34.2578C34.4334 34.6948 34.0162 34.968 33.4302 35.1915C32.9881 35.3603 32.3276 35.5689 31.1058 35.6236C29.7847 35.6832 29.3924 35.6981 26.0498 35.6981C22.7073 35.6981 22.315 35.6832 20.9939 35.6236C19.7721 35.5689 19.1116 35.3653 18.6695 35.1915C18.0835 34.963 17.6663 34.6948 17.2292 34.2578C16.7922 33.8207 16.519 33.4035 16.2955 32.8174C16.1266 32.3754 15.918 31.7149 15.8634 30.4931C15.8038 29.172 15.7889 28.7796 15.7889 25.4371C15.7889 22.0946 15.8038 21.7023 15.8634 20.3812C15.918 19.1594 16.1217 18.4988 16.2955 18.0568C16.524 17.4708 16.7922 17.0536 17.2292 16.6165C17.6663 16.1795 18.0835 15.9063 18.6695 15.6828C19.1116 15.5139 19.7721 15.3053 20.9939 15.2507C22.315 15.1861 22.7123 15.1762 26.0498 15.1762ZM26.0498 12.9214C22.6527 12.9214 22.2256 12.9363 20.8896 12.9959C19.5585 13.0555 18.6497 13.269 17.855 13.577C17.0306 13.8948 16.3352 14.3269 15.6399 15.0222C14.9446 15.7176 14.5175 16.4178 14.1946 17.2373C13.8867 18.032 13.6732 18.9409 13.6136 20.2769C13.554 21.6079 13.5391 22.035 13.5391 25.4322C13.5391 28.8293 13.554 29.2564 13.6136 30.5924C13.6732 31.9235 13.8867 32.8323 14.1946 33.632C14.5125 34.4564 14.9446 35.1517 15.6399 35.8471C16.3352 36.5424 17.0355 36.9695 17.855 37.2923C18.6497 37.6003 19.5585 37.8138 20.8946 37.8734C22.2306 37.933 22.6527 37.9479 26.0548 37.9479C29.4569 37.9479 29.8791 37.933 31.2151 37.8734C32.5461 37.8138 33.455 37.6003 34.2546 37.2923C35.0791 36.9745 35.7744 36.5424 36.4697 35.8471C37.165 35.1517 37.5922 34.4514 37.915 33.632C38.2229 32.8373 38.4365 31.9284 38.4961 30.5924C38.5557 29.2564 38.5706 28.8343 38.5706 25.4322C38.5706 22.0301 38.5557 21.6079 38.4961 20.2719C38.4365 18.9409 38.2229 18.032 37.915 17.2324C37.5971 16.4079 37.165 15.7126 36.4697 15.0173C35.7744 14.322 35.0741 13.8948 34.2546 13.572C33.46 13.2641 32.5511 13.0505 31.2151 12.9909C29.8741 12.9363 29.447 12.9214 26.0498 12.9214Z" fill="black"/>
<path d="M26.0498 15.1762C29.3924 15.1762 29.7847 15.1911 31.1058 15.2507C32.3276 15.3053 32.9881 15.509 33.4302 15.6828C34.0162 15.9113 34.4334 16.1795 34.8705 16.6165C35.3075 17.0536 35.5807 17.4708 35.8042 18.0568C35.9731 18.4988 36.1817 19.1594 36.2363 20.3812C36.2959 21.7023 36.3108 22.0946 36.3108 25.4371C36.3108 28.7796 36.2959 29.172 36.2363 30.4931C36.1817 31.7149 35.978 32.3754 35.8042 32.8174C35.5757 33.4035 35.3075 33.8207 34.8705 34.2578C34.4334 34.6948 34.0162 34.968 33.4302 35.1915C32.9881 35.3603 32.3276 35.5689 31.1058 35.6236C29.7847 35.6832 29.3924 35.6981 26.0498 35.6981C22.7073 35.6981 22.315 35.6832 20.9939 35.6236C19.7721 35.5689 19.1116 35.3653 18.6695 35.1915C18.0835 34.963 17.6663 34.6948 17.2292 34.2578C16.7922 33.8207 16.519 33.4035 16.2955 32.8174C16.1266 32.3754 15.918 31.7149 15.8634 30.4931C15.8038 29.172 15.7889 28.7796 15.7889 25.4371C15.7889 22.0946 15.8038 21.7023 15.8634 20.3812C15.918 19.1594 16.1217 18.4988 16.2955 18.0568C16.524 17.4708 16.7922 17.0536 17.2292 16.6165C17.6663 16.1795 18.0835 15.9063 18.6695 15.6828C19.1116 15.5139 19.7721 15.3053 20.9939 15.2507C22.315 15.1861 22.7123 15.1762 26.0498 15.1762Z" fill="black"/>
<path d="M26.0517 19.0103C22.5056 19.0103 19.625 21.8859 19.625 25.437C19.625 28.9881 22.5006 31.8637 26.0517 31.8637C29.6028 31.8637 32.4785 28.9881 32.4785 25.437C32.4785 21.8859 29.6028 19.0103 26.0517 19.0103ZM26.0517 29.6039C23.7472 29.6039 21.8798 27.7365 21.8798 25.432C21.8798 23.1275 23.7472 21.2601 26.0517 21.2601C28.3562 21.2601 30.2237 23.1275 30.2237 25.432C30.2237 27.7365 28.3562 29.6039 26.0517 29.6039Z" fill="white"/>
<path d="M32.7304 20.2518C33.5587 20.2518 34.2303 19.5802 34.2303 18.7519C34.2303 17.9235 33.5587 17.252 32.7304 17.252C31.902 17.252 31.2305 17.9235 31.2305 18.7519C31.2305 19.5802 31.902 20.2518 32.7304 20.2518Z" fill="black"/>
</g>
<rect x="1.49609" y="0.877441" width="49.0431" height="49.0431" rx="3.5" stroke="black"/>
<defs>
<clipPath id="clip0_5601_59810">
<rect width="25.0216" height="25.0216" fill="white" transform="translate(13.5391 12.9214)"/>
</clipPath>
</defs>
</svg>
