<svg width="51" height="52" viewBox="0 0 51 52" fill="none" xmlns="http://www.w3.org/2000/svg">
<g clip-path="url(#clip0_5717_13925)">
<path d="M25.5498 15.7773C28.8924 15.7773 29.2847 15.7922 30.6058 15.8518C31.8276 15.9064 32.4881 16.11 32.9302 16.2839C33.5162 16.5123 33.9334 16.7805 34.3705 17.2176C34.8075 17.6546 35.0807 18.0718 35.3042 18.6579C35.4731 19.0999 35.6817 19.7605 35.7363 20.9822C35.7959 22.3033 35.8108 22.6957 35.8108 26.0382C35.8108 29.3807 35.7959 29.7731 35.7363 31.0942C35.6817 32.3159 35.478 32.9765 35.3042 33.4185C35.0757 34.0046 34.8075 34.4218 34.3705 34.8588C33.9334 35.2959 33.5162 35.569 32.9302 35.7925C32.4881 35.9614 31.8276 36.17 30.6058 36.2246C29.2847 36.2842 28.8924 36.2991 25.5498 36.2991C22.2073 36.2991 21.815 36.2842 20.4939 36.2246C19.2721 36.17 18.6116 35.9664 18.1695 35.7925C17.5835 35.5641 17.1663 35.2959 16.7292 34.8588C16.2922 34.4218 16.019 34.0046 15.7955 33.4185C15.6266 32.9765 15.418 32.3159 15.3634 31.0942C15.3038 29.7731 15.2889 29.3807 15.2889 26.0382C15.2889 22.6957 15.3038 22.3033 15.3634 20.9822C15.418 19.7605 15.6217 19.0999 15.7955 18.6579C16.024 18.0718 16.2922 17.6546 16.7292 17.2176C17.1663 16.7805 17.5835 16.5074 18.1695 16.2839C18.6116 16.115 19.2721 15.9064 20.4939 15.8518C21.815 15.7872 22.2123 15.7773 25.5498 15.7773ZM25.5498 13.5225C22.1527 13.5225 21.7256 13.5374 20.3896 13.597C19.0585 13.6566 18.1497 13.8701 17.355 14.178C16.5306 14.4959 15.8352 14.928 15.1399 15.6233C14.4446 16.3186 14.0175 17.0189 13.6946 17.8384C13.3867 18.6331 13.1732 19.5419 13.1136 20.8779C13.054 22.209 13.0391 22.6361 13.0391 26.0332C13.0391 29.4304 13.054 29.8575 13.1136 31.1935C13.1732 32.5245 13.3867 33.4334 13.6946 34.233C14.0125 35.0575 14.4446 35.7528 15.1399 36.4481C15.8352 37.1434 16.5355 37.5706 17.355 37.8934C18.1497 38.2013 19.0585 38.4149 20.3946 38.4745C21.7306 38.5341 22.1527 38.549 25.5548 38.549C28.9569 38.549 29.3791 38.5341 30.7151 38.4745C32.0461 38.4149 32.955 38.2013 33.7546 37.8934C34.5791 37.5755 35.2744 37.1434 35.9697 36.4481C36.665 35.7528 37.0922 35.0525 37.415 34.233C37.7229 33.4384 37.9365 32.5295 37.9961 31.1935C38.0557 29.8575 38.0706 29.4353 38.0706 26.0332C38.0706 22.6311 38.0557 22.209 37.9961 20.873C37.9365 19.5419 37.7229 18.6331 37.415 17.8334C37.0971 17.009 36.665 16.3137 35.9697 15.6184C35.2744 14.923 34.5741 14.4959 33.7546 14.1731C32.96 13.8652 32.0511 13.6516 30.7151 13.592C29.3741 13.5374 28.947 13.5225 25.5498 13.5225Z" fill="#C32AA3"/>
<path d="M25.5498 15.7773C28.8924 15.7773 29.2847 15.7922 30.6058 15.8518C31.8276 15.9064 32.4881 16.11 32.9302 16.2839C33.5162 16.5123 33.9334 16.7805 34.3705 17.2176C34.8075 17.6546 35.0807 18.0718 35.3042 18.6579C35.4731 19.0999 35.6817 19.7605 35.7363 20.9822C35.7959 22.3033 35.8108 22.6957 35.8108 26.0382C35.8108 29.3807 35.7959 29.7731 35.7363 31.0942C35.6817 32.3159 35.478 32.9765 35.3042 33.4185C35.0757 34.0046 34.8075 34.4218 34.3705 34.8588C33.9334 35.2959 33.5162 35.569 32.9302 35.7925C32.4881 35.9614 31.8276 36.17 30.6058 36.2246C29.2847 36.2842 28.8924 36.2991 25.5498 36.2991C22.2073 36.2991 21.815 36.2842 20.4939 36.2246C19.2721 36.17 18.6116 35.9664 18.1695 35.7925C17.5835 35.5641 17.1663 35.2959 16.7292 34.8588C16.2922 34.4218 16.019 34.0046 15.7955 33.4185C15.6266 32.9765 15.418 32.3159 15.3634 31.0942C15.3038 29.7731 15.2889 29.3807 15.2889 26.0382C15.2889 22.6957 15.3038 22.3033 15.3634 20.9822C15.418 19.7605 15.6217 19.0999 15.7955 18.6579C16.024 18.0718 16.2922 17.6546 16.7292 17.2176C17.1663 16.7805 17.5835 16.5074 18.1695 16.2839C18.6116 16.115 19.2721 15.9064 20.4939 15.8518C21.815 15.7872 22.2123 15.7773 25.5498 15.7773Z" fill="#C32AA3"/>
<path d="M25.5498 19.6113C22.0037 19.6113 19.123 22.487 19.123 26.0381C19.123 29.5892 21.9987 32.4648 25.5498 32.4648C29.1009 32.4648 31.9765 29.5892 31.9765 26.0381C31.9765 22.487 29.1009 19.6113 25.5498 19.6113ZM25.5498 30.205C23.2453 30.205 21.3779 28.3376 21.3779 26.0331C21.3779 23.7286 23.2453 21.8612 25.5498 21.8612C27.8543 21.8612 29.7217 23.7286 29.7217 26.0331C29.7217 28.3376 27.8543 30.205 25.5498 30.205Z" fill="white"/>
<path d="M32.2304 20.8528C33.0587 20.8528 33.7303 20.1813 33.7303 19.3529C33.7303 18.5246 33.0587 17.853 32.2304 17.853C31.402 17.853 30.7305 18.5246 30.7305 19.3529C30.7305 20.1813 31.402 20.8528 32.2304 20.8528Z" fill="#C32AA3"/>
</g>
<defs>
<clipPath id="clip0_5717_13925">
<rect width="25.0216" height="25.0216" fill="white" transform="translate(13.0391 13.5225)"/>
</clipPath>
</defs>
</svg>
