<svg width="51" height="52" viewBox="0 0 51 52" fill="none" xmlns="http://www.w3.org/2000/svg">
<path fill-rule="evenodd" clip-rule="evenodd" d="M22.8064 21.9177H27.2295V24.1209C27.8666 22.8538 29.5006 21.7153 31.9551 21.7153C36.6604 21.7153 37.7775 24.2377 37.7775 28.8656V37.4367H33.0138V29.9196C33.0138 27.284 32.3767 25.7978 30.7546 25.7978C28.505 25.7978 27.5701 27.3996 27.5701 29.9184V37.4367H22.8064V21.9177ZM14.6378 37.2342H19.4015V21.7153H14.6378V37.2342ZM20.0839 16.655C20.0841 17.0543 20.0049 17.4497 19.851 17.8181C19.697 18.1865 19.4714 18.5206 19.1872 18.8011C18.6112 19.3735 17.8317 19.6939 17.0197 19.6919C16.2091 19.6913 15.4313 19.3718 14.8546 18.8023C14.5714 18.5209 14.3465 18.1864 14.1928 17.8179C14.0391 17.4494 13.9597 17.0543 13.959 16.655C13.959 15.8488 14.2805 15.077 14.8558 14.5078C15.432 13.9375 16.2101 13.6178 17.0209 13.6182C17.8331 13.6182 18.6119 13.9385 19.1872 14.5078C19.7612 15.077 20.0839 15.8488 20.0839 16.655Z" fill="#0A66C2"/>
</svg>
