<svg width="51" height="51" viewBox="0 0 51 51" fill="none" xmlns="http://www.w3.org/2000/svg">
<path fill-rule="evenodd" clip-rule="evenodd" d="M22.3044 21.3167H26.7275V23.5199C27.3647 22.2527 28.9986 21.1142 31.4531 21.1142C36.1585 21.1142 37.2756 23.6366 37.2756 28.2645V36.8356H32.5119V29.3185C32.5119 26.683 31.8747 25.1967 30.2527 25.1967C28.003 25.1967 27.0681 26.7985 27.0681 29.3173V36.8356H22.3044V21.3167ZM14.1359 36.6332H18.8996V21.1142H14.1359V36.6332ZM19.582 16.054C19.5821 16.4532 19.503 16.8486 19.349 17.217C19.1951 17.5854 18.9694 17.9196 18.6852 18.2C18.1093 18.7724 17.3297 19.0928 16.5177 19.0908C15.7072 19.0903 14.9294 18.7707 14.3526 18.2012C14.0694 17.9198 13.8445 17.5853 13.6909 17.2168C13.5372 16.8483 13.4577 16.4532 13.457 16.054C13.457 15.2477 13.7786 14.476 14.3538 13.9067C14.9301 13.3364 15.7082 13.0167 16.5189 13.0171C17.3311 13.0171 18.11 13.3374 18.6852 13.9067C19.2592 14.476 19.582 15.2477 19.582 16.054Z" fill="black"/>
<rect x="0.722656" y="0.829102" width="49.1395" height="49.1395" rx="3.5" stroke="black"/>
</svg>
