<svg width="51" height="52" viewBox="0 0 51 52" fill="none" xmlns="http://www.w3.org/2000/svg">
<g clip-path="url(#clip0_5717_13934)">
<path d="M35.0954 20.9504C35.1051 21.171 35.1051 21.3816 35.1051 21.6022C35.1147 28.2908 30.2006 36.0123 21.2139 36.0123C18.5633 36.0123 15.9611 35.2201 13.7266 33.736C14.1135 33.7861 14.5004 33.8062 14.8874 33.8062C17.0833 33.8062 19.2211 33.0441 20.9527 31.6301C18.8632 31.59 17.0252 30.1761 16.3868 28.1103C17.122 28.2607 17.8765 28.2307 18.5923 28.0201C16.3191 27.5588 14.6842 25.483 14.6746 23.0663C14.6746 23.0462 14.6746 23.0262 14.6746 23.0061C15.3517 23.3972 16.1159 23.6178 16.8898 23.6379C14.752 22.1537 14.0845 19.1955 15.3807 16.879C17.8668 20.0479 21.5234 21.9632 25.4509 22.1738C25.0543 20.4189 25.596 18.5738 26.8632 17.3303C28.8269 15.415 31.9225 15.5153 33.7798 17.5509C34.8729 17.3303 35.9273 16.9091 36.885 16.3175C36.5174 17.4908 35.7532 18.4835 34.7375 19.1153C35.7048 18.9949 36.6528 18.7242 37.5428 18.3231C36.885 19.3459 36.0531 20.2284 35.0954 20.9504Z" fill="#1DA1F2"/>
</g>
<defs>
<clipPath id="clip0_5717_13934">
<rect width="25.0697" height="25.0697" fill="white" transform="translate(13.1016 13.4502)"/>
</clipPath>
</defs>
</svg>
