<svg width="51" height="51" viewBox="0 0 51 51" fill="none" xmlns="http://www.w3.org/2000/svg">
<g clip-path="url(#clip0_5601_59819)">
<path d="M34.5954 20.3493C34.6051 20.5699 34.6051 20.7805 34.6051 21.0011C34.6147 27.6897 29.7006 35.4112 20.7139 35.4112C18.0633 35.4112 15.4611 34.619 13.2266 33.1349C13.6135 33.185 14.0004 33.2051 14.3874 33.2051C16.5833 33.2051 18.7211 32.443 20.4527 31.029C18.3632 30.9889 16.5252 29.575 15.8868 27.5092C16.622 27.6597 17.3765 27.6296 18.0923 27.419C15.8191 26.9577 14.1842 24.8819 14.1746 22.4652C14.1746 22.4451 14.1746 22.4251 14.1746 22.405C14.8517 22.7961 15.6159 23.0167 16.3898 23.0368C14.252 21.5527 13.5845 18.5944 14.8807 16.278C17.3668 19.4468 21.0234 21.3621 24.9509 21.5727C24.5543 19.8178 25.096 17.9727 26.3632 16.7292C28.3269 14.8139 31.4225 14.9142 33.2798 16.9498C34.3729 16.7292 35.4273 16.3081 36.385 15.7164C36.0174 16.8897 35.2532 17.8824 34.2375 18.5142C35.2048 18.3939 36.1528 18.1231 37.0428 17.722C36.385 18.7448 35.5531 19.6273 34.5954 20.3493Z" fill="black"/>
</g>
<rect x="0.582031" y="0.829102" width="49.1395" height="49.1395" rx="3.5" stroke="black"/>
<defs>
<clipPath id="clip0_5601_59819">
<rect width="25.0697" height="25.0697" fill="white" transform="translate(12.6016 12.8491)"/>
</clipPath>
</defs>
</svg>
