<svg width="51" height="52" viewBox="0 0 51 52" fill="none" xmlns="http://www.w3.org/2000/svg">
<g clip-path="url(#clip0_5717_13940)">
<path d="M37.9323 19.957C37.6432 18.8831 36.7965 18.0365 35.7227 17.7474C33.7609 17.2104 25.9137 17.2104 25.9137 17.2104C25.9137 17.2104 18.0666 17.2104 16.1048 17.7267C15.0516 18.0158 14.1843 18.8831 13.8952 19.957C13.3789 21.9187 13.3789 25.9869 13.3789 25.9869C13.3789 25.9869 13.3789 30.0757 13.8952 32.0168C14.1843 33.0906 15.0309 33.9373 16.1048 34.2264C18.0872 34.7633 25.9137 34.7633 25.9137 34.7633C25.9137 34.7633 33.7609 34.7633 35.7227 34.247C36.7965 33.9579 37.6432 33.1113 37.9323 32.0375C38.4485 30.0757 38.4485 26.0075 38.4485 26.0075C38.4485 26.0075 38.4692 21.9187 37.9323 19.957Z" fill="#FF0000"/>
<path d="M23.4141 29.7453L29.9396 25.9869L23.4141 22.2285V29.7453Z" fill="white"/>
</g>
<defs>
<clipPath id="clip0_5717_13940">
<rect width="25.0697" height="25.0697" fill="white" transform="translate(13.3809 13.4502)"/>
</clipPath>
</defs>
</svg>
