<svg width="51" height="51" viewBox="0 0 51 51" fill="none" xmlns="http://www.w3.org/2000/svg">
<g clip-path="url(#clip0_5601_59825)">
<path d="M37.4323 19.3559C37.1432 18.2821 36.2965 17.4354 35.2227 17.1463C33.2609 16.6094 25.4137 16.6094 25.4137 16.6094C25.4137 16.6094 17.5666 16.6094 15.6048 17.1256C14.5516 17.4147 13.6843 18.2821 13.3952 19.3559C12.8789 21.3177 12.8789 25.3858 12.8789 25.3858C12.8789 25.3858 12.8789 29.4746 13.3952 31.4157C13.6843 32.4895 14.5309 33.3362 15.6048 33.6253C17.5872 34.1622 25.4137 34.1622 25.4137 34.1622C25.4137 34.1622 33.2609 34.1622 35.2227 33.646C36.2965 33.3569 37.1432 32.5102 37.4323 31.4364C37.9485 29.4746 37.9485 25.4065 37.9485 25.4065C37.9485 25.4065 37.9692 21.3177 37.4323 19.3559Z" fill="black"/>
<path d="M22.9141 29.1442L29.4396 25.3858L22.9141 21.6274V29.1442Z" fill="white"/>
</g>
<rect x="0.859375" y="0.829102" width="49.1395" height="49.1395" rx="3.5" stroke="black"/>
<defs>
<clipPath id="clip0_5601_59825">
<rect width="25.0697" height="25.0697" fill="white" transform="translate(12.8789 12.8491)"/>
</clipPath>
</defs>
</svg>
